<svg width="34" height="34" viewBox="0 0 34 34" fill="none" xmlns="http://www.w3.org/2000/svg">
<path d="M22.3125 29.75C22.3125 30.0318 22.2006 30.302 22.0013 30.5013C21.802 30.7006 21.5318 30.8125 21.25 30.8125H12.75C12.4682 30.8125 12.198 30.7006 11.9987 30.5013C11.7994 30.302 11.6875 30.0318 11.6875 29.75C11.6875 29.4682 11.7994 29.198 11.9987 28.9987C12.198 28.7994 12.4682 28.6875 12.75 28.6875H21.25C21.5318 28.6875 21.802 28.7994 22.0013 28.9987C22.2006 29.198 22.3125 29.4682 22.3125 29.75ZM29.4645 25.5C29.2801 25.8247 29.0125 26.0944 28.6891 26.2812C28.3658 26.468 27.9984 26.5651 27.625 26.5625H6.375C6.00145 26.562 5.63463 26.463 5.31151 26.2756C4.9884 26.0881 4.72041 25.8188 4.53455 25.4948C4.3487 25.1707 4.25154 24.8034 4.25288 24.4299C4.25422 24.0563 4.35401 23.6897 4.54219 23.367C5.2793 22.0973 6.375 18.5061 6.375 13.8125C6.375 10.9946 7.49442 8.29206 9.48699 6.29949C11.4796 4.30692 14.1821 3.1875 17 3.1875C19.8179 3.1875 22.5204 4.30692 24.513 6.29949C26.5056 8.29206 27.625 10.9946 27.625 13.8125C27.625 18.5048 28.722 22.0973 29.4591 23.367C29.6492 23.6902 29.7497 24.0581 29.7504 24.433C29.7511 24.8079 29.652 25.1762 29.4631 25.5H29.4645ZM27.625 24.4375C26.5984 22.6751 25.5 18.6004 25.5 13.8125C25.5 11.5582 24.6045 9.39615 23.0104 7.80209C21.4164 6.20803 19.2543 5.3125 17 5.3125C14.7457 5.3125 12.5837 6.20803 10.9896 7.80209C9.39554 9.39615 8.5 11.5582 8.5 13.8125C8.5 18.6017 7.40031 22.6764 6.375 24.4375H27.625Z" fill="black"/>
</svg>
