<svg width="17" height="19" viewBox="0 0 17 19" fill="none" xmlns="http://www.w3.org/2000/svg">
<path d="M15.5994 18.1001H3.09985" stroke="#1E1E1E" stroke-width="1.2" stroke-linecap="round" stroke-linejoin="round"/>
<path d="M0.599976 15.6002C0.599976 16.2632 0.863357 16.8991 1.33218 17.3679C1.56432 17.6 1.8399 17.7842 2.14321 17.9098C2.44651 18.0354 2.77159 18.1001 3.09988 18.1001" stroke="#1E1E1E" stroke-width="1.2" stroke-linecap="round" stroke-linejoin="round"/>
<path d="M0.599976 15.6001C0.599976 14.9371 0.863357 14.3012 1.33218 13.8324C1.801 13.3636 2.43686 13.1002 3.09988 13.1002" stroke="#1E1E1E" stroke-width="1.2" stroke-linecap="round" stroke-linejoin="round"/>
<path d="M15.5994 13.1002H3.09985" stroke="#1E1E1E" stroke-width="1.2" stroke-linecap="round" stroke-linejoin="round"/>
<path d="M0.599976 3.10085C0.599976 2.77256 0.664637 2.44749 0.790269 2.14418C0.915901 1.84088 1.10004 1.56529 1.33218 1.33316C1.56432 1.10102 1.8399 0.916878 2.14321 0.791246C2.44651 0.665614 2.77159 0.600952 3.09988 0.600952" stroke="#1E1E1E" stroke-width="1.2" stroke-linecap="round" stroke-linejoin="round"/>
<path d="M15.5994 0.600708L3.09985 0.600708" stroke="#1E1E1E" stroke-width="1.2" stroke-linecap="round" stroke-linejoin="round"/>
<path d="M0.599976 3.10059V15.6001" stroke="#1E1E1E" stroke-width="1.2" stroke-linecap="round" stroke-linejoin="round"/>
<path d="M3.09985 13.1002V0.599976" stroke="#1E1E1E" stroke-width="1.2" stroke-linecap="round" stroke-linejoin="round"/>
<path d="M15.5994 0.600708V13.1002" stroke="#1E1E1E" stroke-width="1.2" stroke-linecap="round" stroke-linejoin="round"/>
<path d="M15.5994 13.1002C14.8132 14.7416 14.7699 16.4068 15.5994 18.1" stroke="#1E1E1E" stroke-width="1.2" stroke-linecap="round" stroke-linejoin="round"/>
</svg>
