<svg width="24" height="24" viewBox="0 0 24 24" fill="none" xmlns="http://www.w3.org/2000/svg">
<path d="M6.59999 8.40005C6.44086 8.40005 6.28825 8.46326 6.17573 8.57578C6.06321 8.68831 5.99999 8.84092 5.99999 9.00005C5.99999 9.15918 6.06321 9.31179 6.17573 9.42431C6.28825 9.53683 6.44086 9.60005 6.59999 9.60005H11.4C11.5591 9.60005 11.7117 9.53683 11.8243 9.42431C11.9368 9.31179 12 9.15918 12 9.00005C12 8.84092 11.9368 8.68831 11.8243 8.57578C11.7117 8.46326 11.5591 8.40005 11.4 8.40005H6.59999ZM6.59999 11.4C6.44086 11.4 6.28825 11.4633 6.17573 11.5758C6.06321 11.6883 5.99999 11.8409 5.99999 12C5.99999 12.1592 6.06321 12.3118 6.17573 12.4243C6.28825 12.5368 6.44086 12.6 6.59999 12.6H15C15.1591 12.6 15.3117 12.5368 15.4243 12.4243C15.5368 12.3118 15.6 12.1592 15.6 12C15.6 11.8409 15.5368 11.6883 15.4243 11.5758C15.3117 11.4633 15.1591 11.4 15 11.4H6.59999ZM5.99999 15C5.99999 14.8409 6.06321 14.6883 6.17573 14.5758C6.28825 14.4633 6.44086 14.4 6.59999 14.4H12.6C12.7591 14.4 12.9117 14.4633 13.0243 14.5758C13.1368 14.6883 13.2 14.8409 13.2 15C13.2 15.1592 13.1368 15.3118 13.0243 15.4243C12.9117 15.5368 12.7591 15.6 12.6 15.6H6.59999C6.44086 15.6 6.28825 15.5368 6.17573 15.4243C6.06321 15.3118 5.99999 15.1592 5.99999 15ZM5.39999 4.80005C4.60434 4.80005 3.84128 5.11612 3.27867 5.67873C2.71606 6.24134 2.39999 7.0044 2.39999 7.80005V16.2C2.39999 16.9957 2.71606 17.7588 3.27867 18.3214C3.84128 18.884 4.60434 19.2 5.39999 19.2H11.37C11.502 18.7668 11.7096 18.36 11.982 18H5.39999C4.9226 18 4.46477 17.8104 4.1272 17.4728C3.78964 17.1353 3.59999 16.6774 3.59999 16.2V7.80005C3.59999 7.32266 3.78964 6.86482 4.1272 6.52726C4.46477 6.18969 4.9226 6.00005 5.39999 6.00005H18.6C19.0774 6.00005 19.5352 6.18969 19.8728 6.52726C20.2104 6.86482 20.4 7.32266 20.4 7.80005V10.8036C20.806 10.7852 21.2122 10.838 21.6 10.9596V7.80005C21.6 7.0044 21.2839 6.24134 20.7213 5.67873C20.1587 5.11612 19.3956 4.80005 18.6 4.80005H5.39999ZM13.176 18.4524L18.972 12.6564C19.3931 12.2357 19.964 11.9995 20.5592 11.9997C21.1545 11.9999 21.7253 12.2366 22.146 12.6576C22.5667 13.0787 22.803 13.6497 22.8028 14.2449C22.8025 14.8401 22.5659 15.4109 22.1448 15.8316L16.3488 21.6264C16.011 21.9641 15.588 22.2038 15.1248 22.32L13.3272 22.7688C13.1485 22.8134 12.9612 22.8109 12.7837 22.7618C12.6062 22.7126 12.4444 22.6183 12.3141 22.4881C12.1838 22.3579 12.0894 22.1962 12.04 22.0187C11.9906 21.8413 11.988 21.654 12.0324 21.4752L12.4824 19.6776C12.5986 19.2144 12.8383 18.7914 13.176 18.4536" fill="#1E1E1E"/>
</svg>
