<svg width="24" height="24" viewBox="0 0 24 24" fill="none" xmlns="http://www.w3.org/2000/svg">
<path d="M2.39999 7.80005C2.39999 7.0044 2.71606 6.24134 3.27867 5.67873C3.84128 5.11612 4.60434 4.80005 5.39999 4.80005H18.6C19.3956 4.80005 20.1587 5.11612 20.7213 5.67873C21.2839 6.24134 21.6 7.0044 21.6 7.80005V10.9608C20.9983 10.77 20.3556 10.7481 19.7423 10.8977C19.129 11.0474 18.5686 11.3627 18.1224 11.8092L12.3264 17.6052C11.8822 18.0506 11.5542 18.5982 11.3712 19.2H5.39999C4.60434 19.2 3.84128 18.884 3.27867 18.3214C2.71606 17.7588 2.39999 16.9957 2.39999 16.2V7.80005ZM6.59999 8.40005C6.44086 8.40005 6.28825 8.46326 6.17573 8.57578C6.06321 8.68831 5.99999 8.84092 5.99999 9.00005C5.99999 9.15918 6.06321 9.31179 6.17573 9.42431C6.28825 9.53683 6.44086 9.60005 6.59999 9.60005H11.4C11.5591 9.60005 11.7117 9.53683 11.8243 9.42431C11.9368 9.31179 12 9.15918 12 9.00005C12 8.84092 11.9368 8.68831 11.8243 8.57578C11.7117 8.46326 11.5591 8.40005 11.4 8.40005H6.59999ZM5.99999 12C5.99999 12.1592 6.06321 12.3118 6.17573 12.4243C6.28825 12.5368 6.44086 12.6 6.59999 12.6H15C15.1591 12.6 15.3117 12.5368 15.4243 12.4243C15.5368 12.3118 15.6 12.1592 15.6 12C15.6 11.8409 15.5368 11.6883 15.4243 11.5758C15.3117 11.4633 15.1591 11.4 15 11.4H6.59999C6.44086 11.4 6.28825 11.4633 6.17573 11.5758C6.06321 11.6883 5.99999 11.8409 5.99999 12ZM6.59999 14.4C6.44086 14.4 6.28825 14.4633 6.17573 14.5758C6.06321 14.6883 5.99999 14.8409 5.99999 15C5.99999 15.1592 6.06321 15.3118 6.17573 15.4243C6.28825 15.5368 6.44086 15.6 6.59999 15.6H12.6C12.7591 15.6 12.9117 15.5368 13.0243 15.4243C13.1368 15.3118 13.2 15.1592 13.2 15C13.2 14.8409 13.1368 14.6883 13.0243 14.5758C12.9117 14.4633 12.7591 14.4 12.6 14.4H6.59999ZM13.176 18.4524L18.972 12.6564C19.1805 12.4481 19.428 12.2829 19.7003 12.1702C19.9726 12.0575 20.2645 11.9996 20.5592 11.9997C20.854 11.9998 21.1458 12.058 21.4181 12.1709C21.6903 12.2837 21.9377 12.4492 22.146 12.6576C22.3543 12.8661 22.5195 13.1136 22.6322 13.386C22.7449 13.6583 22.8029 13.9502 22.8028 14.2449C22.8026 14.5396 22.7445 14.8315 22.6316 15.1037C22.5187 15.376 22.3533 15.6233 22.1448 15.8316L16.3488 21.6264C16.011 21.9641 15.588 22.2038 15.1248 22.32L13.3272 22.7688C13.1485 22.8134 12.9612 22.8109 12.7837 22.7618C12.6062 22.7126 12.4444 22.6183 12.3141 22.4881C12.1838 22.3579 12.0894 22.1962 12.04 22.0187C11.9906 21.8413 11.988 21.654 12.0324 21.4752L12.4824 19.6776C12.5986 19.2144 12.8383 18.7914 13.176 18.4536" fill="#FF7700"/>
</svg>
