<svg width="34" height="34" viewBox="0 0 34 34" fill="none" xmlns="http://www.w3.org/2000/svg">
<path d="M28.6875 9.91809H5.3125C4.7257 9.91809 4.25 10.3938 4.25 10.9806C4.25 11.5674 4.7257 12.0431 5.3125 12.0431H28.6875C29.2743 12.0431 29.75 11.5674 29.75 10.9806C29.75 10.3938 29.2743 9.91809 28.6875 9.91809Z" fill="#1E1E1E"/>
<path d="M24.4375 15.939H5.3125C4.7257 15.939 4.25 16.4147 4.25 17.0015C4.25 17.5883 4.7257 18.064 5.3125 18.064H24.4375C25.0243 18.064 25.5 17.5883 25.5 17.0015C25.5 16.4147 25.0243 15.939 24.4375 15.939Z" fill="#1E1E1E"/>
<path d="M28.6875 21.9569H5.3125C4.7257 21.9569 4.25 22.4326 4.25 23.0194C4.25 23.6062 4.7257 24.0819 5.3125 24.0819H28.6875C29.2743 24.0819 29.75 23.6062 29.75 23.0194C29.75 22.4326 29.2743 21.9569 28.6875 21.9569Z" fill="#1E1E1E"/>
</svg>
