<svg width="24" height="24" viewBox="0 0 24 24" fill="none" xmlns="http://www.w3.org/2000/svg">
<path fill-rule="evenodd" clip-rule="evenodd" d="M8.54462 6.24963C8.17751 6.24954 7.81397 6.32176 7.47477 6.46216C7.13557 6.60256 6.82734 6.8084 6.56769 7.06793C6.30804 7.32745 6.10205 7.63557 5.96148 7.9747C5.8209 8.31383 5.7485 8.67733 5.74841 9.04444C5.74832 9.41155 5.82054 9.77509 5.96094 10.1143C6.10134 10.4535 6.30718 10.7617 6.5667 11.0214C6.82623 11.281 7.13435 11.487 7.47348 11.6276C7.81261 11.7682 8.17611 11.8406 8.54322 11.8406C9.28464 11.8408 9.99576 11.5465 10.5201 11.0224C11.0445 10.4982 11.3392 9.78725 11.3394 9.04584C11.3396 8.30443 11.0453 7.5933 10.5211 7.06891C9.99701 6.54452 9.28603 6.24982 8.54462 6.24963ZM7.14721 9.04444C7.14721 8.67383 7.29444 8.31839 7.55651 8.05633C7.81857 7.79426 8.174 7.64704 8.54462 7.64704C8.91523 7.64704 9.27067 7.79426 9.53273 8.05633C9.7948 8.31839 9.94202 8.67383 9.94202 9.04444C9.94202 9.41506 9.7948 9.77049 9.53273 10.0326C9.27067 10.2946 8.91523 10.4418 8.54462 10.4418C8.174 10.4418 7.81857 10.2946 7.55651 10.0326C7.29444 9.77049 7.14721 9.41506 7.14721 9.04444Z" fill="#1E1E1E"/>
<path fill-rule="evenodd" clip-rule="evenodd" d="M6.09908 3.5C5.27715 3.5 4.48889 3.82651 3.9077 4.4077C3.32651 4.98889 3 5.77715 3 6.59908V17.7558C3 18.5777 3.32651 19.366 3.9077 19.9472C4.48889 20.5283 5.27715 20.8549 6.09908 20.8549H17.2558C18.0777 20.8549 18.866 20.5283 19.4472 19.9472C20.0283 19.366 20.3549 18.5777 20.3549 17.7558V6.59908C20.3549 5.77715 20.0283 4.98889 19.4472 4.4077C18.866 3.82651 18.0777 3.5 17.2558 3.5H6.09908ZM19.1152 6.59908V15.0162L15.2104 11.1113C15.0942 10.9951 14.9365 10.9299 14.7722 10.9299C14.6078 10.9299 14.4502 10.9951 14.334 11.1113L5.85487 19.5904C5.40625 19.5318 4.99421 19.3122 4.69547 18.9724C4.39674 18.6326 4.23165 18.1958 4.23096 17.7434V6.58669C4.23096 6.09353 4.42686 5.62057 4.77558 5.27186C5.12429 4.92314 5.59725 4.72724 6.0904 4.72724H17.2471C17.7403 4.72724 18.2132 4.92314 18.5619 5.27186C18.9106 5.62057 19.1065 6.09353 19.1065 6.58669L19.1152 6.59908ZM17.2558 19.6152H7.59904L14.7765 12.4378L19.1152 16.7765V17.7595C19.1152 18.2527 18.9193 18.7256 18.5706 19.0743C18.2219 19.423 17.7489 19.6189 17.2558 19.6189V19.6152Z" fill="#1E1E1E"/>
</svg>
