<?xml version="1.0" standalone="no"?>
<!DOCTYPE svg PUBLIC "-//W3C//DTD SVG 20010904//EN"
 "http://www.w3.org/TR/2001/REC-SVG-20010904/DTD/svg10.dtd">
<svg version="1.0" xmlns="http://www.w3.org/2000/svg"
 width="512.000000pt" height="512.000000pt" viewBox="0 0 512.000000 512.000000"
 preserveAspectRatio="xMidYMid meet">

<g transform="translate(0.000000,512.000000) scale(0.100000,-0.100000)"
fill="#000000" stroke="none">
<path d="M345 5106 c-83 -20 -146 -56 -211 -120 -65 -66 -105 -137 -123 -224
-8 -38 -11 -699 -11 -2348 0 -2280 0 -2295 20 -2334 23 -45 80 -80 130 -80 50
0 107 35 130 80 20 39 20 54 20 2330 0 2276 0 2291 20 2330 23 45 80 80 131
80 45 0 103 -36 128 -80 l21 -38 0 -2294 c0 -2214 1 -2295 19 -2328 22 -42 83
-80 129 -80 50 0 104 33 130 78 l22 40 0 870 0 871 128 -76 c330 -198 622
-302 962 -345 173 -22 575 -16 745 10 354 55 566 139 983 389 470 281 707 361
1140 379 172 8 210 21 242 84 24 47 25 108 5 205 -39 185 -166 335 -375 444
-99 52 -195 89 -435 171 -268 90 -431 160 -451 191 -13 22 322 613 489 864
263 394 459 592 638 645 74 22 112 48 134 90 34 67 3 155 -68 191 -39 21 -51
22 -192 15 -264 -11 -456 -45 -670 -117 -166 -56 -324 -134 -575 -284 -337
-201 -501 -277 -705 -329 -305 -76 -706 -86 -1025 -25 -246 48 -427 125 -773
329 l-223 133 -33 63 c-90 174 -301 268 -496 220z m4029 -368 c-4 -7 -26 -35
-49 -63 -195 -233 -487 -704 -726 -1171 -106 -206 -114 -235 -82 -301 19 -41
131 -133 224 -185 92 -52 202 -95 474 -188 305 -104 427 -162 506 -239 32 -31
59 -61 59 -67 0 -5 -55 -15 -122 -22 -251 -24 -498 -93 -721 -200 -67 -32
-219 -116 -337 -187 -337 -201 -501 -277 -705 -329 -305 -76 -706 -86 -1025
-25 -242 47 -424 124 -759 320 l-210 124 -1 1127 0 1127 128 -76 c330 -198
622 -302 962 -345 173 -22 575 -16 745 10 367 57 567 139 1065 437 191 113
334 183 475 231 116 39 108 37 99 22z"/>
</g>
</svg>
