<svg width="28" height="28" viewBox="0 0 28 28" fill="none" xmlns="http://www.w3.org/2000/svg">
<path d="M16.9167 7.58333L11.0833 11.6667M16.9167 20.4167L11.0833 16.3333M11.0833 14C11.0833 14.7735 10.776 15.5154 10.2291 16.0624C9.68208 16.6094 8.94021 16.9167 8.16667 16.9167C7.39312 16.9167 6.65125 16.6094 6.10427 16.0624C5.55729 15.5154 5.25 14.7735 5.25 14C5.25 13.2265 5.55729 12.4846 6.10427 11.9376C6.65125 11.3906 7.39312 11.0833 8.16667 11.0833C8.94021 11.0833 9.68208 11.3906 10.2291 11.9376C10.776 12.4846 11.0833 13.2265 11.0833 14ZM22.75 21.5833C22.75 22.3569 22.4427 23.0987 21.8957 23.6457C21.3487 24.1927 20.6069 24.5 19.8333 24.5C19.0598 24.5 18.3179 24.1927 17.7709 23.6457C17.224 23.0987 16.9167 22.3569 16.9167 21.5833C16.9167 20.8098 17.224 20.0679 17.7709 19.5209C18.3179 18.974 19.0598 18.6667 19.8333 18.6667C20.6069 18.6667 21.3487 18.974 21.8957 19.5209C22.4427 20.0679 22.75 20.8098 22.75 21.5833ZM22.75 6.41667C22.75 7.19021 22.4427 7.93208 21.8957 8.47906C21.3487 9.02604 20.6069 9.33333 19.8333 9.33333C19.0598 9.33333 18.3179 9.02604 17.7709 8.47906C17.224 7.93208 16.9167 7.19021 16.9167 6.41667C16.9167 5.64312 17.224 4.90125 17.7709 4.35427C18.3179 3.80729 19.0598 3.5 19.8333 3.5C20.6069 3.5 21.3487 3.80729 21.8957 4.35427C22.4427 4.90125 22.75 5.64312 22.75 6.41667Z" stroke="#FF7700" stroke-width="1.5" stroke-linecap="round" stroke-linejoin="round"/>
</svg>
