<svg width="24" height="24" viewBox="0 0 24 24" fill="none" xmlns="http://www.w3.org/2000/svg">
<path d="M15.0336 10.0987L10.9207 7.35674C10.8175 7.28785 10.6974 7.24829 10.5735 7.24228C10.4495 7.23627 10.3262 7.26404 10.2167 7.32263C10.1073 7.38122 10.0158 7.46842 9.95209 7.57494C9.88835 7.68145 9.85472 7.80327 9.8548 7.9274V13.4112C9.85472 13.5354 9.88835 13.6572 9.95209 13.7637C10.0158 13.8702 10.1073 13.9574 10.2167 14.016C10.3262 14.0746 10.4495 14.1024 10.5735 14.0964C10.6974 14.0904 10.8175 14.0508 10.9207 13.9819L15.0336 11.24C15.1276 11.1774 15.2047 11.0926 15.2581 10.993C15.3114 10.8935 15.3393 10.7823 15.3393 10.6693C15.3393 10.5564 15.3114 10.4452 15.2581 10.3456C15.2047 10.2461 15.1276 10.1612 15.0336 10.0987ZM11.2258 12.1303V9.21268L13.4176 10.6693L11.2258 12.1303ZM19.4515 4.5H4.37096C4.00736 4.5 3.65865 4.64444 3.40154 4.90154C3.14444 5.15865 3 5.50736 3 5.87096V15.4677C3 15.8313 3.14444 16.18 3.40154 16.4371C3.65865 16.6942 4.00736 16.8386 4.37096 16.8386H19.4515C19.8151 16.8386 20.1638 16.6942 20.4209 16.4371C20.678 16.18 20.8225 15.8313 20.8225 15.4677V5.87096C20.8225 5.50736 20.678 5.15865 20.4209 4.90154C20.1638 4.64444 19.8151 4.5 19.4515 4.5ZM19.4515 15.4677H4.37096V5.87096H19.4515V15.4677ZM20.8225 18.8951C20.8225 19.0769 20.7503 19.2512 20.6217 19.3798C20.4932 19.5083 20.3188 19.5806 20.137 19.5806H3.68548C3.50368 19.5806 3.32932 19.5083 3.20077 19.3798C3.07222 19.2512 3 19.0769 3 18.8951C3 18.7133 3.07222 18.5389 3.20077 18.4104C3.32932 18.2818 3.50368 18.2096 3.68548 18.2096H20.137C20.3188 18.2096 20.4932 18.2818 20.6217 18.4104C20.7503 18.5389 20.8225 18.7133 20.8225 18.8951Z" fill="#1E1E1E"/>
</svg>
